Coordinates
version=1
nRows=23
nColumns=38
inDegrees=no

Units are S.I. units (second, meters, Newtons, ...)
If the header above contains a line with 'inDegrees', this indicates whether rotational values are in degrees (yes) or radians (no).

endheader
time	pelvis_tilt	pelvis_list	pelvis_rotation	pelvis_tx	pelvis_ty	pelvis_tz	hip_flexion_r	hip_adduction_r	hip_rotation_r	knee_angle_r	ankle_angle_r	subtalar_angle_r	mtp_angle_r	hip_flexion_l	hip_adduction_l	hip_rotation_l	knee_angle_l	ankle_angle_l	subtalar_angle_l	mtp_angle_l	lumbar_extension	lumbar_bending	lumbar_rotation	arm_flex_r	arm_add_r	arm_rot_r	elbow_flex_r	pro_sup_r	wrist_flex_r	wrist_dev_r	arm_flex_l	arm_add_l	arm_rot_l	elbow_flex_l	pro_sup_l	wrist_flex_l	wrist_dev_l
0	-1.3546	1.49622	-0.0869604	0.778355	1.52099	0.951272	0.234334	0.0995319	-0.155181	0.380476	0.0762753	0	0	0.392292	-0.0557505	0.0348794	1.38444	-0.1152	0	0	-0.107853	0.174935	-0.134829	-0.000436546	-0.100661	-0.285988	0.197959	1.55975	0	0	-0.057175	-0.4433	0.911433	0.737359	0.746398	0	0
0.01	-1.35559	1.50241	-0.0932413	0.778057	1.5103	0.953015	0.217559	0.0961384	-0.150225	0.372318	0.0830371	0	0	0.419843	-0.0439383	0.036542	1.37707	-0.106351	0	0	-0.109719	0.170188	-0.12279	-0.00173977	-0.103788	-0.28277	0.199389	1.55288	0	0	-0.0481815	-0.444374	0.923107	0.73848	0.751815	0	0
0.02	-1.2953	1.50849	-0.160613	0.777814	1.49913	0.955106	0.193277	0.0926128	-0.143638	0.358113	0.0881335	0	0	0.439524	-0.0323828	0.037205	1.36318	-0.0943269	0	0	-0.115215	0.164747	-0.113409	-0.00178479	-0.106762	-0.278551	0.199416	1.54677	0	0	-0.0430547	-0.445484	0.929083	0.741372	0.76036	0	0
0.03	-1.20508	1.51508	-0.259434	0.777404	1.4879	0.957117	0.170329	0.0879927	-0.134933	0.346675	0.0924414	0	0	0.456032	-0.020948	0.0355416	1.34428	-0.0801087	0	0	-0.121707	0.157664	-0.10425	-0.00114603	-0.109631	-0.272954	0.199009	1.54196	0	0	-0.0400154	-0.447037	0.93185	0.745979	0.771402	0	0
0.04	-1.10895	1.53224	-0.363376	0.776734	1.47623	0.957664	0.144326	0.0748132	-0.118449	0.32027	0.0987825	0	0	0.475795	0.000924894	0.0303092	1.32214	-0.0638038	0	0	-0.120354	0.137649	-0.0987359	-0.00312949	-0.109163	-0.267692	0.197812	1.53993	0	0	-0.0417484	-0.454339	0.93229	0.757738	0.780522	0	0
0.05	-0.910754	1.53806	-0.571405	0.776194	1.46503	0.959305	0.120102	0.0690941	-0.109024	0.306578	0.103426	0	0	0.488508	0.0111913	0.0261607	1.29481	-0.0468721	0	0	-0.126659	0.129124	-0.0903572	-0.00214202	-0.111632	-0.262793	0.196684	1.53826	0	0	-0.0407143	-0.455428	0.930817	0.762923	0.788857	0	0
0.06	-0.671763	1.54177	-0.820909	0.775609	1.45388	0.960735	0.0963374	0.0637954	-0.0998868	0.29275	0.108226	0	0	0.499554	0.0194973	0.02121	1.26341	-0.0291564	0	0	-0.132529	0.121323	-0.082029	-0.00157718	-0.114373	-0.258816	0.197295	1.53656	0	0	-0.0403379	-0.455251	0.927478	0.766217	0.796637	0	0
0.07	-0.407214	1.54318	-1.09634	0.775029	1.44279	0.961966	0.073207	0.0583424	-0.0922332	0.279348	0.113136	0	0	0.508496	0.0266587	0.0157196	1.22734	-0.012112	0	0	-0.138357	0.114148	-0.0739725	-0.00135521	-0.117251	-0.253688	0.19888	1.53514	0	0	-0.0401335	-0.454326	0.923726	0.768309	0.804634	0	0
0.08	-0.172003	1.54297	-1.34266	0.774392	1.43169	0.96292	0.0509536	0.0534632	-0.0852516	0.265873	0.118023	0	0	0.515882	0.0320544	0.00963398	1.18685	0.00469452	0	0	-0.143226	0.107608	-0.0661493	-0.00153198	-0.12009	-0.249064	0.201107	1.53395	0	0	-0.0408248	-0.453359	0.91859	0.771016	0.811907	0	0
0.09	0.0627865	1.54098	-1.58865	0.774279	1.42069	0.963828	0.0251852	0.0519668	-0.0619801	0.245602	0.117757	0	0	0.519985	0.0389312	0.0037064	1.14065	0.0197245	0	0	-0.148562	0.101476	-0.0587266	-0.0014022	-0.124248	-0.244808	0.203703	1.53294	0	0	-0.0413602	-0.449862	0.912499	0.771066	0.818509	0	0
0.1	0.883852	1.54457	-2.42203	0.771372	1.4094	0.961639	0.0199654	0.0316121	-0.0646966	0.224386	0.12284	0	0	0.543578	0.0342802	-0.0130135	1.09442	0.044807	0	0	-0.134522	0.0750573	-0.0518622	-0.00616967	-0.119259	-0.242556	0.206182	1.53214	0	0	-0.0481488	-0.460644	0.907199	0.783769	0.822031	0	0
0.11	0.290255	1.5379	-1.83905	0.770615	1.39884	0.964451	-0.00916281	0.0410329	-0.067878	0.231908	0.134642	0	0	0.528788	0.0190637	-0.0189338	1.03744	0.0574484	0	0	-0.155801	0.0887443	-0.0426669	-0.00258051	-0.125878	-0.236789	0.210195	1.52749	0	0	-0.0433985	-0.449311	0.899746	0.772819	0.829004	0	0
0.12	1.01648	1.54045	-2.57888	0.769638	1.38759	0.961576	-0.0139304	0.0271323	-0.0516425	0.204816	0.13339	0	0	0.54868	0.0304596	-0.0375409	0.984337	0.068865	0	0	-0.138454	0.0675779	-0.0366419	-0.00591485	-0.123942	-0.235128	0.211502	1.52705	0	0	-0.0515698	-0.455616	0.894002	0.783488	0.830401	0	0
0.13	1.09543	1.53908	-2.67045	0.768697	1.37667	0.961111	-0.0297854	0.0248316	-0.0442481	0.194583	0.138842	0	0	0.549091	0.027185	-0.053561	0.923646	0.0792759	0	0	-0.139011	0.0636227	-0.0293423	-0.0053452	-0.125466	-0.232695	0.213168	1.52625	0	0	-0.0544859	-0.453833	0.88711	0.784863	0.831495	0	0
0.14	1.1187	1.53733	-2.70608	0.767741	1.36573	0.960611	-0.0470095	0.0226391	-0.037	0.185002	0.14484	0	0	0.545364	0.0231996	-0.07229	0.858861	0.0879903	0	0	-0.141531	0.0600409	-0.0227403	-0.00445233	-0.126482	-0.229113	0.2148	1.52629	0	0	-0.0570494	-0.45144	0.8798	0.784668	0.833226	0	0
0.15	1.11396	1.53585	-2.71303	0.766815	1.35475	0.959975	-0.0644013	0.0206254	-0.0306435	0.176739	0.151454	0	0	0.538743	0.019201	-0.0931547	0.790497	0.0956496	0	0	-0.14485	0.0568245	-0.0172347	-0.00337955	-0.126939	-0.224711	0.216718	1.52469	0	0	-0.0593353	-0.449194	0.8736	0.784148	0.835836	0	0
0.16	1.10204	1.53582	-2.71707	0.766512	1.34365	0.958932	-0.0808233	0.0174826	-0.0266725	0.168747	0.158986	0	0	0.530462	0.0285149	-0.107632	0.720566	0.0936698	0	0	-0.147459	0.056335	-0.010637	-0.00101482	-0.12863	-0.222121	0.218287	1.52292	0	0	-0.0631177	-0.445728	0.869267	0.783804	0.836152	0	0
0.17	1.09771	1.53447	-2.72282	0.765667	1.33245	0.957937	-0.0982813	0.0142416	-0.0243543	0.161231	0.166861	0	0	0.51972	0.0245935	-0.132769	0.645024	0.0997278	0	0	-0.150431	0.0526804	-0.00735281	0.00050294	-0.127686	-0.219957	0.218844	1.52146	0	0	-0.065138	-0.443997	0.866178	0.782805	0.836298	0	0
0.18	1.09772	1.53278	-2.73158	0.764982	1.32105	0.956777	-0.116179	0.0103021	-0.0237226	0.153514	0.175416	0	0	0.506606	0.0226561	-0.160319	0.566139	0.104572	0	0	-0.152995	0.0485637	-0.00559602	0.00166191	-0.126282	-0.21708	0.219251	1.51942	0	0	-0.0670656	-0.442484	0.86463	0.78184	0.83531	0	0
0.19	1.13127	1.53169	-2.77159	0.764639	1.30952	0.955339	-0.131571	0.00608918	-0.0254472	0.148296	0.185472	0	0	0.49346	0.0237655	-0.185868	0.485453	0.107607	0	0	-0.153363	0.0447193	-0.00593908	0.00279063	-0.124509	-0.215697	0.218272	1.51724	0	0	-0.0686236	-0.440948	0.865878	0.779805	0.83286	0	0
0.2	1.67953	1.51434	2.95297	0.763993	1.29836	0.950109	-0.111148	-0.0152411	-0.0182228	0.159651	0.209304	0	0	0.507128	0.0426947	-0.215693	0.407023	0.10899	0	0	-0.125388	0.0194251	-0.00484806	-0.000784076	-0.118083	-0.215397	0.217203	1.51506	0	0	-0.0766346	-0.449179	0.870409	0.78991	0.829199	0	0
0.21	1.71412	1.51062	2.91448	0.764268	1.28648	0.948228	-0.123203	-0.0223372	-0.0238164	0.158329	0.222141	0	0	0.492264	0.0517517	-0.234221	0.32214	0.11071	0	0	-0.122416	0.0142995	-0.00762553	-0.00108565	-0.115813	-0.215067	0.216324	1.51127	0	0	-0.0777493	-0.448279	0.879538	0.788188	0.8256	0	0
0.22	1.7313	1.50667	2.89388	0.764719	1.27438	0.946286	-0.136103	-0.0300676	-0.0295996	0.157402	0.234166	0	0	0.474571	0.0640777	-0.244755	0.235869	0.111799	0	0	-0.120045	0.00897458	-0.01034	-0.00199178	-0.113512	-0.214587	0.215891	1.50608	0	0	-0.0778049	-0.447923	0.894461	0.786817	0.82576	0	0
